<svg width="40" height="40" viewBox="0 0 40 40" fill="none" xmlns="http://www.w3.org/2000/svg">
<path d="M38.1494 23.252C38.3496 22.1533 38.457 21.0303 38.457 19.9072C38.457 17.417 37.9688 15 37.0068 12.7295C36.0791 10.5322 34.7461 8.55957 33.0518 6.86523C31.3716 5.18077 29.3799 3.83914 27.1875 2.91504C24.9121 1.95313 22.5 1.46484 20.0098 1.46484C18.8379 1.46484 17.6611 1.57715 16.5186 1.79687C14.9376 0.959097 13.176 0.519952 11.3867 0.517578C8.47168 0.517578 5.72754 1.65527 3.66699 3.71582C2.65021 4.72738 1.84403 5.93047 1.29507 7.25552C0.74611 8.58056 0.465258 10.0013 0.468752 11.4355C0.468752 13.291 0.947268 15.1172 1.84082 16.7285C1.66016 17.7734 1.5625 18.8428 1.5625 19.9072C1.5625 22.3975 2.05078 24.8145 3.0127 27.085C3.94043 29.2822 5.26856 31.2549 6.96289 32.9492C8.65723 34.6436 10.6299 35.9717 12.8272 36.8994C15.1025 37.8613 17.5147 38.3496 20.0049 38.3496C21.0889 38.3496 22.1729 38.252 23.2373 38.0615C24.8731 38.9844 26.7188 39.4775 28.6084 39.4775C31.5234 39.4775 34.2676 38.3447 36.3281 36.2793C38.3936 34.2188 39.5264 31.4746 39.5264 28.5596C39.5313 26.7041 39.0527 24.873 38.1494 23.252ZM20.083 31.2061C13.5303 31.2061 10.6006 27.9834 10.6006 25.5713C10.6006 24.3311 11.5137 23.4668 12.7734 23.4668C15.5762 23.4668 14.8535 27.4951 20.083 27.4951C22.7637 27.4951 24.2432 26.04 24.2432 24.5508C24.2432 23.6572 23.8037 22.6611 22.0361 22.2266L16.2061 20.7715C11.5137 19.5947 10.6592 17.0557 10.6592 14.6729C10.6592 9.72168 15.3223 7.86133 19.7022 7.86133C23.7354 7.86133 28.4912 10.0928 28.4912 13.0615C28.4912 14.3359 27.3877 15.0732 26.1279 15.0732C23.7354 15.0732 24.1748 11.7627 19.3555 11.7627C16.9629 11.7627 15.6397 12.8467 15.6397 14.3945C15.6397 15.9424 17.5293 16.4355 19.1699 16.8115L23.4863 17.7686C28.2129 18.8232 29.4092 21.582 29.4092 24.1797C29.4092 28.1982 26.3184 31.2061 20.083 31.2061Z" fill="white"/>
</svg>

